<svg xmlns="http://www.w3.org/2000/svg" width="0" height="0" class="hidden">
    <!-- Basic -->
    <symbol stroke-linecap="round" stroke-linejoin="round" viewBox="0 0 24 24" id="check">
        <path d="M20 6L9 17l-5-5"></path>
    </symbol>
    <symbol stroke-linecap="round" stroke-linejoin="round" viewBox="0 0 24 24" id="saved">
        <circle cx="12" cy="12" r="10"></circle>
    </symbol>
    <symbol stroke-linecap="round" stroke-linejoin="round" viewBox="0 0 24 24" id="close">
        <path d="M18 6L6 18M6 6l12 12"></path>
    </symbol>
    <symbol stroke-linecap="round" stroke-linejoin="round" viewBox="0 0 24 24" id="filter">
        <path d="M4 21v-7m0-4V3m8 18v-9m0-4V3m8 18v-5m0-4V3M1 14h6m2-6h6m2 8h6"></path>
    </symbol>
    <symbol stroke-linecap="round" stroke-linejoin="round" viewBox="0 0 24 24" id="browse">
        <path d="M3 9l9-7 9 7v11a2 2 0 01-2 2H5a2 2 0 01-2-2z"></path>
    </symbol>
    <symbol stroke-linecap="round" stroke-linejoin="round" viewBox="0 0 24 24" id="right">
        <path d="M9 18l6-6-6-6"></path>
    </symbol>
    <symbol stroke-linecap="round" stroke-linejoin="round" viewBox="0 0 24 24" id="heart">
        <path d="M20.84 4.61a5.5 5.5 0 00-7.78 0L12 5.67l-1.06-1.06a5.5 5.5 0 00-7.78 7.78l1.06 1.06L12 21.23l7.78-7.78 1.06-1.06a5.5 5.5 0 000-7.78z"></path>
    </symbol>
    <!-- Filter -->
    <!-- <symbol stroke-linecap="round" stroke-linejoin="round" viewBox="0 0 24 24" id="water">
        <path d="M3 7c3-2 6-2 9 0s6 2 9 0M3 17c3-2 6-2 9 0s6 2 9 0M3 12c3-2 6-2 9 0s6 2 9 0"></path>
    </symbol> -->
    <symbol stroke-linecap="round" stroke-linejoin="round" viewBox="0 0 24 24" id="water">
        <path d="M12 2.69l5.66 5.66a8 8 0 11-11.31 0z"></path>
    </symbol>
    <symbol stroke-linecap="round" stroke-linejoin="round" viewBox="0 0 24 24" id="pets">
        <circle cx="12" cy="8" r="7"></circle>
        <path d="M8.21 13.89L7 23l5-3 5 3-1.21-9.12"></path>
    </symbol>
    <symbol stroke-linecap="round" stroke-linejoin="round" viewBox="0 0 24 24" id="fire">
        <path d="M12 12c2-2.96 0-7-1-8 0 3.038-1.762 4.383-2.989 5.642C6.785 10.902 6 12.24 6 14a6 6 0 1012 0c0-1.532-.77-2.94-1.714-4-1.786 3-3.077 3-4.286 2z"></path>
    </symbol>
    <symbol stroke-linecap="round" stroke-linejoin="round" viewBox="0 0 24 24" id="fee">
        <rect x="2" y="4" width="20" height="16" rx="2"></rect>
        <path d="M7 15h0M2 9.5h20"></path>
    </symbol>
    <symbol stroke-linecap="round" stroke-linejoin="round" viewBox="0 0 24 24" id="wc">
        <path d="M21 12.79A9 9 0 1111.21 3 7 7 0 0021 12.79z"></path>
    </symbol>
</svg>